<svg width="14" height="14" viewBox="0 0 14 14" fill="none" xmlns="http://www.w3.org/2000/svg">
<path fill-rule="evenodd" clip-rule="evenodd" d="M13.4 7.22658C13.4 7.6594 13.3559 8.09161 13.2694 8.51293C13.185 8.92423 13.06 9.32804 12.8962 9.71405C12.7362 10.0932 12.5378 10.4586 12.3059 10.7994C12.0774 11.138 11.8143 11.4557 11.5252 11.7453C11.2355 12.0336 10.9167 12.2961 10.5783 12.5255C10.2364 12.7557 9.87047 12.9539 9.49106 13.1146C9.10448 13.2775 8.69975 13.4024 8.2888 13.4866C7.86693 13.5734 7.43313 13.6177 6.99969 13.6177C6.56592 13.6177 6.13215 13.5734 5.71088 13.4866C5.2993 13.4024 4.89459 13.2775 4.50832 13.1146C4.12893 12.9539 3.76264 12.7557 3.42076 12.5255C3.0823 12.2961 2.76354 12.0336 2.47446 11.7453C2.18508 11.4557 1.92193 11.138 1.69317 10.7994C1.46253 10.4586 1.26376 10.0932 1.10313 9.71405C0.939356 9.32804 0.814055 8.92421 0.72936 8.51293C0.643738 8.09161 0.599976 7.6594 0.599976 7.22658C0.599976 6.79343 0.643713 6.36029 0.729385 5.9399C0.81408 5.52859 0.939381 5.12417 1.10316 4.73877C1.26378 4.35931 1.46256 3.99358 1.69319 3.65279C1.92195 3.3139 2.18511 2.99682 2.47449 2.7069C2.76357 2.41854 3.08233 2.15674 3.42078 1.92769C3.76267 1.69643 4.12895 1.4983 4.50834 1.33726C4.89462 1.17402 5.2993 1.04889 5.7109 0.965272C6.13217 0.879149 6.56594 0.835449 6.99971 0.835449C7.43316 0.835449 7.86693 0.879149 8.28882 0.965272C8.69977 1.04892 9.10448 1.17404 9.49109 1.33726C9.87047 1.49827 10.2364 1.69643 10.5783 1.92769C10.9168 2.15674 11.2356 2.41854 11.5252 2.7069C11.8143 2.99682 12.0775 3.3139 12.3059 3.65279C12.5378 3.99358 12.7362 4.35934 12.8962 4.73877C13.06 5.12417 13.185 5.52859 13.2694 5.9399C13.3559 6.36029 13.4 6.79343 13.4 7.22658ZM4.66766 2.28998C3.14351 3.00869 2.00595 4.4111 1.65124 6.10126C1.79533 6.10251 4.07295 6.13122 6.69713 5.43498C5.75116 3.75669 4.74049 2.38706 4.66766 2.28998ZM7.14997 6.27541C4.33577 7.11671 1.6353 7.05617 1.53844 7.05245C1.53686 7.11111 1.53405 7.16789 1.53405 7.22657C1.53405 8.62866 2.06376 9.90688 2.93444 10.8734C2.93256 10.8706 4.42828 8.22081 7.3778 7.26839C7.44904 7.24468 7.52156 7.22344 7.59343 7.20286C7.45626 6.89268 7.30653 6.58186 7.14997 6.27541ZM10.6092 3.13039C9.64698 2.28311 8.3835 1.76917 6.99967 1.76917C6.55558 1.76917 6.12461 1.82285 5.71179 1.92208C5.79365 2.03194 6.82028 3.39191 7.75501 5.10575C9.81732 4.33372 10.5958 3.15035 10.6092 3.13039ZM7.96599 8.10722C7.95382 8.11125 7.94165 8.11473 7.92975 8.11908C4.70494 9.24167 3.65184 11.504 3.64045 11.5287C4.56833 12.2493 5.73214 12.684 6.99971 12.684C7.7566 12.684 8.47757 12.5301 9.13354 12.2515C9.0526 11.7746 8.73509 10.1032 7.96599 8.10722ZM10.0539 11.7528C11.2811 10.9258 12.1527 9.61265 12.3959 8.09159C12.2834 8.05539 10.7542 7.572 8.99006 7.85443C9.70697 9.82171 9.99825 11.4239 10.0539 11.7528ZM8.1757 5.91901C8.30256 6.17928 8.4254 6.44418 8.53883 6.7104C8.57916 6.80591 8.61854 6.89954 8.65697 6.99314C10.5346 6.75721 12.3843 7.15415 12.4634 7.17036C12.4509 5.87656 11.9874 4.68914 11.2206 3.75952C11.2102 3.77415 10.3336 5.03896 8.1757 5.91901Z" fill="white"/>
</svg>
