<svg width="14" height="14" viewBox="0 0 14 14" fill="none" xmlns="http://www.w3.org/2000/svg">
<path fill-rule="evenodd" clip-rule="evenodd" d="M7.00058 0.835449C5.26242 0.835449 5.04429 0.843049 4.36161 0.874116C3.68027 0.905317 3.2152 1.01318 2.80827 1.17145C2.38733 1.33492 2.03026 1.55359 1.67452 1.90946C1.31852 2.2652 1.09985 2.62227 0.935846 3.04307C0.777177 3.45014 0.669176 3.91535 0.638509 4.59642C0.607976 5.2791 0.599976 5.49736 0.599976 7.23552C0.599976 8.97367 0.607709 9.19114 0.638643 9.87381C0.669976 10.5551 0.777844 11.0202 0.935979 11.4272C1.09958 11.8481 1.31825 12.2052 1.67412 12.5609C2.02972 12.9169 2.38679 13.1361 2.80747 13.2996C3.21467 13.4578 3.67987 13.5657 4.36108 13.5969C5.04376 13.628 5.26176 13.6356 6.99978 13.6356C8.73806 13.6356 8.95553 13.628 9.6382 13.5969C10.3195 13.5657 10.7851 13.4578 11.1924 13.2996C11.6132 13.1361 11.9697 12.9169 12.3253 12.5609C12.6813 12.2052 12.9 11.8481 13.064 11.4273C13.2213 11.0202 13.3293 10.555 13.3613 9.87394C13.392 9.19127 13.4 8.97367 13.4 7.23552C13.4 5.49736 13.392 5.27923 13.3613 4.59655C13.3293 3.91521 13.2213 3.45014 13.064 3.04321C12.9 2.62227 12.6813 2.2652 12.3253 1.90946C11.9693 1.55346 11.6133 1.33479 11.192 1.17145C10.7839 1.01318 10.3186 0.905317 9.63727 0.874116C8.9546 0.843049 8.73726 0.835449 6.99858 0.835449H7.00058ZM6.42641 1.98878C6.59681 1.98851 6.78695 1.98878 7.00055 1.98878C8.70937 1.98878 8.9119 1.99491 9.58671 2.02558C10.2107 2.05411 10.5494 2.15838 10.775 2.24598C11.0737 2.36198 11.2866 2.50065 11.5105 2.72465C11.7345 2.94865 11.8731 3.16199 11.9894 3.46066C12.077 3.68599 12.1814 4.02466 12.2098 4.64867C12.2405 5.32334 12.2471 5.52601 12.2471 7.23403C12.2471 8.94205 12.2405 9.14472 12.2098 9.81939C12.1813 10.4434 12.077 10.7821 11.9894 11.0074C11.8734 11.3061 11.7345 11.5187 11.5105 11.7426C11.2865 11.9666 11.0738 12.1053 10.775 12.2213C10.5497 12.3093 10.2107 12.4133 9.58671 12.4418C8.91203 12.4725 8.70937 12.4792 7.00055 12.4792C5.2916 12.4792 5.08906 12.4725 4.41439 12.4418C3.79038 12.413 3.45171 12.3088 3.22598 12.2211C2.92731 12.1051 2.71397 11.9665 2.48997 11.7425C2.26597 11.5185 2.1273 11.3057 2.01103 11.0069C1.92343 10.7815 1.81903 10.4429 1.79063 9.81886C1.75996 9.14419 1.75383 8.94152 1.75383 7.23243C1.75383 5.52335 1.75996 5.32174 1.79063 4.64707C1.81916 4.02306 1.92343 3.68439 2.01103 3.45879C2.12703 3.16012 2.26597 2.94679 2.48997 2.72278C2.71397 2.49878 2.92731 2.36011 3.22598 2.24385C3.45158 2.15585 3.79038 2.05184 4.41439 2.02318C5.00479 1.99651 5.2336 1.98851 6.42641 1.98718V1.98878ZM10.4169 3.05146C9.99285 3.05146 9.64885 3.39506 9.64885 3.8192C9.64885 4.2432 9.99285 4.58721 10.4169 4.58721C10.8409 4.58721 11.1849 4.2432 11.1849 3.8192C11.1849 3.39519 10.8409 3.05146 10.4169 3.05146ZM7.00059 3.9488C5.1855 3.9488 3.71389 5.42041 3.71389 7.2355C3.71389 9.05058 5.1855 10.5215 7.00059 10.5215C8.81567 10.5215 10.2868 9.05058 10.2868 7.2355C10.2868 5.42041 8.81567 3.9488 7.00059 3.9488ZM7.00056 5.10214C8.17871 5.10214 9.13392 6.05722 9.13392 7.2355C9.13392 8.41364 8.17871 9.36885 7.00056 9.36885C5.82228 9.36885 4.86721 8.41364 4.86721 7.2355C4.86721 6.05722 5.82228 5.10214 7.00056 5.10214Z" fill="white"/>
</svg>
