<svg width="12" height="11" viewBox="0 0 12 11" fill="none" xmlns="http://www.w3.org/2000/svg">
<path fill-rule="evenodd" clip-rule="evenodd" d="M5.6406 2.98905L5.66578 3.40428L5.2461 3.35344C3.71843 3.15853 2.38383 2.49756 1.25067 1.38746L0.696681 0.836651L0.553988 1.2434C0.251813 2.15012 0.444869 3.10769 1.0744 3.75172C1.41015 4.10762 1.33461 4.15847 0.755438 3.94662C0.553988 3.87883 0.377719 3.82798 0.360931 3.8534C0.302175 3.91272 0.503625 4.68386 0.663106 4.98892C0.881344 5.41262 1.32621 5.82785 1.81305 6.0736L2.22434 6.2685L1.73751 6.27697C1.26746 6.27697 1.25067 6.28545 1.30103 6.4634C1.46891 7.01421 2.13201 7.59892 2.87066 7.85314L3.39108 8.0311L2.93781 8.30226C2.26631 8.69207 1.4773 8.91239 0.688288 8.92934C0.310569 8.93782 0 8.97171 0 8.99713C0 9.08187 1.02404 9.55642 1.61999 9.74285C3.40786 10.2937 5.53148 10.0564 7.1263 9.11577C8.25945 8.44632 9.39261 7.1159 9.92142 5.82785C10.2068 5.14145 10.4922 3.8873 10.4922 3.28564C10.4922 2.89584 10.5174 2.84499 10.9874 2.37892C11.2644 2.10775 11.5246 1.81116 11.575 1.72642C11.6589 1.56542 11.6505 1.56542 11.2224 1.70948C10.509 1.9637 10.4083 1.9298 10.7608 1.54847C11.021 1.2773 11.3316 0.785807 11.3316 0.641749C11.3316 0.616327 11.2057 0.658697 11.063 0.734963C10.9119 0.819703 10.5761 0.946814 10.3243 1.02308L9.87105 1.16714L9.45976 0.887496C9.23313 0.734963 8.91417 0.565483 8.74629 0.514639C8.31821 0.396002 7.6635 0.41295 7.27738 0.548535C6.22816 0.929866 5.56506 1.91285 5.6406 2.98905Z" fill="white"/>
</svg>
