<svg width="14" height="11" viewBox="0 0 14 11" fill="none" xmlns="http://www.w3.org/2000/svg">
<path fill-rule="evenodd" clip-rule="evenodd" d="M12.0008 1.11011C12.5515 1.26125 12.9853 1.70656 13.1325 2.27206C13.4 3.29697 13.4 5.43545 13.4 5.43545C13.4 5.43545 13.4 7.57386 13.1325 8.59884C12.9853 9.16434 12.5515 9.60965 12.0008 9.76086C11.0027 10.0354 6.99998 10.0354 6.99998 10.0354C6.99998 10.0354 2.99728 10.0354 1.9991 9.76086C1.44834 9.60965 1.01459 9.16434 0.867394 8.59884C0.599976 7.57386 0.599976 5.43545 0.599976 5.43545C0.599976 5.43545 0.599976 3.29697 0.867394 2.27206C1.01459 1.70656 1.44834 1.26125 1.9991 1.11011C2.99728 0.835449 6.99998 0.835449 6.99998 0.835449C6.99998 0.835449 11.0027 0.835449 12.0008 1.11011ZM5.79999 3.63541V7.63541L8.99999 5.63548L5.79999 3.63541Z" fill="white"/>
</svg>
